<?xml version="1.0" ?><svg style="enable-background:new 0 0 32 32;" version="1.1" viewBox="0 0 32 32" xml:space="preserve" xmlns="http://www.w3.org/2000/svg" xmlns:xlink="http://www.w3.org/1999/xlink"><style type="text/css">
	.st0{display:none;}
	.st1{fill:none;}
</style><g class="st0" id="grid"/><g id="Layer_2"><g>

<path d="M8.63,30c-0.36,0-0.66-0.08-0.93-0.24c-0.41-0.24-0.68-0.64-0.78-1.11c-0.07-0.35-0.04-0.73,0.06-1.11    c-3.55,0.91-4.33,0.13-4.65-0.19c-0.44-0.44-0.62-1.04-0.52-1.69c0.31-1.92,3.18-4.06,4.32-4.63c1.25-0.62,1.63-2.27,1.75-3.19    c-4.67-2.04-4.67-3.12-4.67-3.59c0-1.53,1.24-2.77,2.77-2.77c0.13,0,0.25,0.02,0.37,0.07l1.58,0.63v-2.06    c0-0.82,0.12-1.62,0.37-2.4l1.91,0.6c-0.18,0.58-0.27,1.19-0.27,1.8v3.54c0,0.33-0.16,0.64-0.44,0.83    c-0.27,0.19-0.62,0.22-0.93,0.1l-2.73-1.09c-0.29,0.06-0.53,0.29-0.6,0.58c0.48,0.47,2.29,1.45,4.09,2.21    c0.37,0.16,0.61,0.52,0.61,0.92c0,0.17-0.03,4.18-2.91,5.62c-1.37,0.69-3.11,2.46-3.24,3.12c0.39,0.1,1.77,0.08,4.84-0.99    c0.41-0.14,0.87,0,1.13,0.35s0.26,0.83,0,1.19c-0.48,0.65-0.72,1.15-0.82,1.47c0.37-0.1,1.1-0.38,2.38-1.17    c0.35-0.21,0.79-0.2,1.12,0.04c2.07,1.52,4.96,1.55,7.06,0.07c0.33-0.23,0.76-0.24,1.1-0.04c1.19,0.73,1.88,0.99,2.24,1.09    c-0.1-0.31-0.34-0.82-0.82-1.47c-0.26-0.35-0.26-0.83,0-1.19c0.26-0.35,0.72-0.5,1.13-0.35c3.07,1.07,4.46,1.1,4.84,0.99    c-0.12-0.65-1.86-2.43-3.23-3.12c-1.27-0.63-2.18-1.88-2.63-3.6c-0.1-0.38,0.04-0.79,0.35-1.04c1.84-1.46,3.96-3.38,4.33-4.03    c-0.05-0.32-0.29-0.58-0.61-0.65l-2.73,1.09c-0.31,0.12-0.66,0.08-0.93-0.1c-0.27-0.19-0.44-0.5-0.44-0.83v-3.27    c0-3.19-2.26-5.89-5.26-6.29c-2.38-0.31-4.73,0.8-5.99,2.84l-1.7-1.05c1.68-2.7,4.8-4.18,7.95-3.76c3.99,0.53,7,4.08,7,8.27v1.8    l1.58-0.63c0.12-0.05,0.24-0.07,0.37-0.07c1.53,0,2.77,1.24,2.77,2.77c0,0.38,0,1.38-4.56,5.06c0.32,0.83,0.78,1.41,1.39,1.71    c1.14,0.57,4.01,2.71,4.32,4.63c0.1,0.65-0.08,1.25-0.52,1.69c-0.33,0.33-1.11,1.1-4.65,0.19c0.1,0.38,0.13,0.76,0.06,1.11    c-0.1,0.47-0.37,0.87-0.78,1.11c-0.83,0.5-2.04,0.23-3.98-0.88c-2.52,1.49-5.78,1.46-8.28-0.08C10.44,29.61,9.41,30,8.63,30z     M23.17,28L23.17,28L23.17,28z"/>
</g></g></svg>